<svg id="visual" viewBox="0 0 600 900" width="600" height="900" xmlns="http://www.w3.org/2000/svg" xmlns:xlink="http://www.w3.org/1999/xlink" version="1.1"><rect x="0" y="0" width="600" height="900" fill="#001220"></rect><path d="M0 708L14.3 690.5C28.7 673 57.3 638 85.8 623.5C114.3 609 142.7 615 171.2 629C199.7 643 228.3 665 257 676C285.7 687 314.3 687 343 682.2C371.7 677.3 400.3 667.7 428.8 671.8C457.3 676 485.7 694 514.2 689C542.7 684 571.3 656 585.7 642L600 628L600 901L585.7 901C571.3 901 542.7 901 514.2 901C485.7 901 457.3 901 428.8 901C400.3 901 371.7 901 343 901C314.3 901 285.7 901 257 901C228.3 901 199.7 901 171.2 901C142.7 901 114.3 901 85.8 901C57.3 901 28.7 901 14.3 901L0 901Z" fill="#002349"></path><path d="M0 740L14.3 729.2C28.7 718.3 57.3 696.7 85.8 691.8C114.3 687 142.7 699 171.2 710.3C199.7 721.7 228.3 732.3 257 725C285.7 717.7 314.3 692.3 343 693C371.7 693.7 400.3 720.3 428.8 724.8C457.3 729.3 485.7 711.7 514.2 712.3C542.7 713 571.3 732 585.7 741.5L600 751L600 901L585.7 901C571.3 901 542.7 901 514.2 901C485.7 901 457.3 901 428.8 901C400.3 901 371.7 901 343 901C314.3 901 285.7 901 257 901C228.3 901 199.7 901 171.2 901C142.7 901 114.3 901 85.8 901C57.3 901 28.7 901 14.3 901L0 901Z" fill="#332b63"></path><path d="M0 778L14.3 770.8C28.7 763.7 57.3 749.3 85.8 746.3C114.3 743.3 142.7 751.7 171.2 748.5C199.7 745.3 228.3 730.7 257 731.7C285.7 732.7 314.3 749.3 343 758C371.7 766.7 400.3 767.3 428.8 771.8C457.3 776.3 485.7 784.7 514.2 774.5C542.7 764.3 571.3 735.7 585.7 721.3L600 707L600 901L585.7 901C571.3 901 542.7 901 514.2 901C485.7 901 457.3 901 428.8 901C400.3 901 371.7 901 343 901C314.3 901 285.7 901 257 901C228.3 901 199.7 901 171.2 901C142.7 901 114.3 901 85.8 901C57.3 901 28.7 901 14.3 901L0 901Z" fill="#652d72"></path><path d="M0 815L14.3 815.5C28.7 816 57.3 817 85.8 819.3C114.3 821.7 142.7 825.3 171.2 823.8C199.7 822.3 228.3 815.7 257 809C285.7 802.3 314.3 795.7 343 787.8C371.7 780 400.3 771 428.8 770.8C457.3 770.7 485.7 779.3 514.2 779.2C542.7 779 571.3 770 585.7 765.5L600 761L600 901L585.7 901C571.3 901 542.7 901 514.2 901C485.7 901 457.3 901 428.8 901C400.3 901 371.7 901 343 901C314.3 901 285.7 901 257 901C228.3 901 199.7 901 171.2 901C142.7 901 114.3 901 85.8 901C57.3 901 28.7 901 14.3 901L0 901Z" fill="#982874"></path><path d="M0 810L14.3 814.5C28.7 819 57.3 828 85.8 836.2C114.3 844.3 142.7 851.7 171.2 853.8C199.7 856 228.3 853 257 846C285.7 839 314.3 828 343 830.2C371.7 832.3 400.3 847.7 428.8 852.7C457.3 857.7 485.7 852.3 514.2 848.8C542.7 845.3 571.3 843.7 585.7 842.8L600 842L600 901L585.7 901C571.3 901 542.7 901 514.2 901C485.7 901 457.3 901 428.8 901C400.3 901 371.7 901 343 901C314.3 901 285.7 901 257 901C228.3 901 199.7 901 171.2 901C142.7 901 114.3 901 85.8 901C57.3 901 28.7 901 14.3 901L0 901Z" fill="#c62368"></path></svg>