<svg id="visual" viewBox="0 0 600 900" width="600" height="900" xmlns="http://www.w3.org/2000/svg" xmlns:xlink="http://www.w3.org/1999/xlink" version="1.1"><rect x="0" y="0" width="600" height="900" fill="#002349"></rect><path d="M0 722L20 725.8C40 729.7 80 737.3 120 732.3C160 727.3 200 709.7 240 701.3C280 693 320 694 360 692.2C400 690.3 440 685.7 480 685.5C520 685.3 560 689.7 580 691.8L600 694L600 901L580 901C560 901 520 901 480 901C440 901 400 901 360 901C320 901 280 901 240 901C200 901 160 901 120 901C80 901 40 901 20 901L0 901Z" fill="#002349"></path><path d="M0 755L20 752.2C40 749.3 80 743.7 120 743.7C160 743.7 200 749.3 240 755.3C280 761.3 320 767.7 360 764.3C400 761 440 748 480 742.3C520 736.7 560 738.3 580 739.2L600 740L600 901L580 901C560 901 520 901 480 901C440 901 400 901 360 901C320 901 280 901 240 901C200 901 160 901 120 901C80 901 40 901 20 901L0 901Z" fill="#002b76"></path><path d="M0 783L20 782.3C40 781.7 80 780.3 120 787.5C160 794.7 200 810.3 240 816C280 821.7 320 817.3 360 814.7C400 812 440 811 480 809.2C520 807.3 560 804.7 580 803.3L600 802L600 901L580 901C560 901 520 901 480 901C440 901 400 901 360 901C320 901 280 901 240 901C200 901 160 901 120 901C80 901 40 901 20 901L0 901Z" fill="#092da1"></path><path d="M0 828L20 830.8C40 833.7 80 839.3 120 840C160 840.7 200 836.3 240 833.7C280 831 320 830 360 834.2C400 838.3 440 847.7 480 849.2C520 850.7 560 844.3 580 841.2L600 838L600 901L580 901C560 901 520 901 480 901C440 901 400 901 360 901C320 901 280 901 240 901C200 901 160 901 120 901C80 901 40 901 20 901L0 901Z" fill="#3524c7"></path></svg>