<svg id="visual" viewBox="0 0 600 900" width="600" height="900" xmlns="http://www.w3.org/2000/svg" xmlns:xlink="http://www.w3.org/1999/xlink" version="1.1"><rect x="0" y="0" width="600" height="900" fill="#002349"></rect><path d="M0 546L20 553.5C40 561 80 576 120 565.8C160 555.7 200 520.3 240 503.7C280 487 320 489 360 485.3C400 481.7 440 472.3 480 471.8C520 471.3 560 479.7 580 483.8L600 488L600 901L580 901C560 901 520 901 480 901C440 901 400 901 360 901C320 901 280 901 240 901C200 901 160 901 120 901C80 901 40 901 20 901L0 901Z" fill="#002349"></path><path d="M0 611L20 605.5C40 600 80 589 120 589C160 589 200 600 240 612C280 624 320 637 360 630.2C400 623.3 440 596.7 480 585.3C520 574 560 578 580 580L600 582L600 901L580 901C560 901 520 901 480 901C440 901 400 901 360 901C320 901 280 901 240 901C200 901 160 901 120 901C80 901 40 901 20 901L0 901Z" fill="#002b76"></path><path d="M0 667L20 665.8C40 664.7 80 662.3 120 676.7C160 691 200 722 240 733.2C280 744.3 320 735.7 360 730.2C400 724.7 440 722.3 480 718.5C520 714.7 560 709.3 580 706.7L600 704L600 901L580 901C560 901 520 901 480 901C440 901 400 901 360 901C320 901 280 901 240 901C200 901 160 901 120 901C80 901 40 901 20 901L0 901Z" fill="#092da1"></path><path d="M0 757L20 762.7C40 768.3 80 779.7 120 780.8C160 782 200 773 240 767.8C280 762.7 320 761.3 360 769.8C400 778.3 440 796.7 480 799.3C520 802 560 789 580 782.5L600 776L600 901L580 901C560 901 520 901 480 901C440 901 400 901 360 901C320 901 280 901 240 901C200 901 160 901 120 901C80 901 40 901 20 901L0 901Z" fill="#3524c7"></path></svg>