<svg id="visual" viewBox="0 0 600 900" width="600" height="900" xmlns="http://www.w3.org/2000/svg" xmlns:xlink="http://www.w3.org/1999/xlink" version="1.1"><rect x="0" y="0" width="600" height="900" fill="#002349"></rect><path d="M0 782L10 781.7C20 781.3 40 780.7 60 779.2C80 777.7 100 775.3 120 776.3C140 777.3 160 781.7 180 782.8C200 784 220 782 240 784.2C260 786.3 280 792.7 300 791.7C320 790.7 340 782.3 360 779.2C380 776 400 778 420 781.7C440 785.3 460 790.7 480 789.3C500 788 520 780 540 777.5C560 775 580 778 590 779.5L600 781L600 901L590 901C580 901 560 901 540 901C520 901 500 901 480 901C460 901 440 901 420 901C400 901 380 901 360 901C340 901 320 901 300 901C280 901 260 901 240 901C220 901 200 901 180 901C160 901 140 901 120 901C100 901 80 901 60 901C40 901 20 901 10 901L0 901Z" fill="#002349"></path><path d="M0 811L10 808.3C20 805.7 40 800.3 60 796.7C80 793 100 791 120 792C140 793 160 797 180 802.8C200 808.7 220 816.3 240 816.3C260 816.3 280 808.7 300 803C320 797.3 340 793.7 360 793.7C380 793.7 400 797.3 420 802.2C440 807 460 813 480 811.5C500 810 520 801 540 801.2C560 801.3 580 810.7 590 815.3L600 820L600 901L590 901C580 901 560 901 540 901C520 901 500 901 480 901C460 901 440 901 420 901C400 901 380 901 360 901C340 901 320 901 300 901C280 901 260 901 240 901C220 901 200 901 180 901C160 901 140 901 120 901C100 901 80 901 60 901C40 901 20 901 10 901L0 901Z" fill="#002b76"></path><path d="M0 842L10 843.3C20 844.7 40 847.3 60 848.5C80 849.7 100 849.3 120 848.2C140 847 160 845 180 840.7C200 836.3 220 829.7 240 829.8C260 830 280 837 300 836.5C320 836 340 828 360 826.7C380 825.3 400 830.7 420 830.7C440 830.7 460 825.3 480 826.8C500 828.3 520 836.7 540 838.8C560 841 580 837 590 835L600 833L600 901L590 901C580 901 560 901 540 901C520 901 500 901 480 901C460 901 440 901 420 901C400 901 380 901 360 901C340 901 320 901 300 901C280 901 260 901 240 901C220 901 200 901 180 901C160 901 140 901 120 901C100 901 80 901 60 901C40 901 20 901 10 901L0 901Z" fill="#092da1"></path><path d="M0 870L10 866.8C20 863.7 40 857.3 60 854.3C80 851.3 100 851.7 120 853.8C140 856 160 860 180 862.2C200 864.3 220 864.7 240 863.7C260 862.7 280 860.3 300 862.2C320 864 340 870 360 869.2C380 868.3 400 860.7 420 858.8C440 857 460 861 480 860.3C500 859.7 520 854.3 540 851.8C560 849.3 580 849.7 590 849.8L600 850L600 901L590 901C580 901 560 901 540 901C520 901 500 901 480 901C460 901 440 901 420 901C400 901 380 901 360 901C340 901 320 901 300 901C280 901 260 901 240 901C220 901 200 901 180 901C160 901 140 901 120 901C100 901 80 901 60 901C40 901 20 901 10 901L0 901Z" fill="#3524c7"></path></svg>